<svg id="图层_1" data-name="图层 1" xmlns="http://www.w3.org/2000/svg" viewBox="0 0 64 64"><defs><style>.cls-1{fill:#040000;}</style></defs><title>3g-bottom</title><path class="cls-1" d="M44.57,26.73h1v-17A25.88,25.88,0,0,0,33.86,6V20.31h1a1,1,0,0,1,1,1V32.59a1,1,0,0,1-1,1h-1V58a25.88,25.88,0,0,0,11.7-3.73V40h-1a1,1,0,0,1-1-1V27.72A1,1,0,0,1,44.57,26.73Z"/><path class="cls-1" d="M19.43,45h-1v9.28A25.88,25.88,0,0,0,30.14,58V33.58h-1a1,1,0,0,1-1-1V21.31a1,1,0,0,1,1-1h1V6a25.88,25.88,0,0,0-11.7,3.73V31.69h1a1,1,0,0,1,1,1V44A1,1,0,0,1,19.43,45Z"/><path class="cls-1" d="M14.72,45h-1a1,1,0,0,1-1-1V32.68a1,1,0,0,1,1-1h1V12.53a26,26,0,0,0,0,38.95Z"/><path class="cls-1" d="M49.28,12.53v14.2h1a1,1,0,0,1,1,1V39a1,1,0,0,1-1,1h-1V51.47a26,26,0,0,0,0-38.95Z"/><circle class="cls-1" cx="32" cy="26.73" r="1.86"/><circle class="cls-1" cx="16.58" cy="38.32" r="1.86"/><circle class="cls-1" cx="47.42" cy="33.36" r="1.86"/><path class="cls-1" d="M32,1A31,31,0,1,0,63,32,31,31,0,0,0,32,1Zm0,59.52A28.52,28.52,0,1,1,60.52,32,28.52,28.52,0,0,1,32,60.52Z"/></svg>