<svg id="图层_1" data-name="图层 1" xmlns="http://www.w3.org/2000/svg" viewBox="0 0 64 64"><defs><style>.cls-1{fill:#040000;}</style></defs><title>3g-bottom</title><path class="cls-1" d="M32,1A31,31,0,1,0,63,32,31,31,0,0,0,32,1Zm0,59.52A28.52,28.52,0,1,1,60.52,32,28.52,28.52,0,0,1,32,60.52Z"/><path class="cls-1" d="M32,6.09a26,26,0,0,0-22,40V41.67h7.44V53.74c.55.37,1.11.71,1.69,1V47.2h7.44V57.61q.84.18,1.69.3V30.52h7.44V57.91q.85-.12,1.69-.3V41.67h7.44V54.78c.58-.33,1.14-.67,1.69-1V47.2h6.69A26,26,0,0,0,32,6.09ZM17.46,39.81H10V36.09h7.44Zm9.13,5.57H19.15V41.67h7.44Zm0-5.57H19.15V36.09h7.44Zm0-5.57H19.15V30.52h7.44Zm0-5.57H19.15V24.94h7.44Zm0-11.15H19.15V13.8h7.44Zm9.13,11.15H28.28V24.94h7.44Zm0-5.57H28.28V19.37h7.44Zm0-5.57H28.28V13.8h7.44Zm0-5.46H28.28V8.33h7.44Zm9.13,27.76H37.41V36.09h7.44Zm0-5.57H37.41V30.52h7.44Zm0-11.15H37.41V19.37h7.44Zm1.69,16.72V36.09H54v3.72Z"/></svg>