<svg id="图层_1" data-name="图层 1" xmlns="http://www.w3.org/2000/svg" viewBox="0 0 64 64"><defs><style>.cls-1{fill:#040000;}</style></defs><title>3g-bottom</title><path class="cls-1" d="M32,1A31,31,0,1,0,63,32,31,31,0,0,0,32,1Zm0,59.52A28.52,28.52,0,1,1,60.52,32,28.52,28.52,0,0,1,32,60.52Z"/><path class="cls-1" d="M53.11,16.76V37.55a1.86,1.86,0,1,1-3.72,0V12.62A26,26,0,1,0,19,54.55V23a1.86,1.86,0,1,1,3.72,0v6.83h3.72V14a1.86,1.86,0,1,1,3.72,0V41.23a1.86,1.86,0,1,1-3.72,0V37.95H22.7V56.32A26,26,0,0,0,53.11,16.76ZM14.9,36.65a1.86,1.86,0,1,1-3.72,0V29.18a1.86,1.86,0,0,1,3.72,0ZM20.84,20a1.86,1.86,0,1,1,1.86-1.86A1.86,1.86,0,0,1,20.84,20Zm9.3,32.19a1.86,1.86,0,1,1-3.72,0V47.43a1.86,1.86,0,1,1,3.72,0Zm15.2-2.48a1.86,1.86,0,0,1-1.86,1.86h0a1.86,1.86,0,0,1-1.86-1.86v-9.5H37.9v1A1.86,1.86,0,0,1,36,43.09h0a1.86,1.86,0,0,1-1.86-1.86V16.51A1.86,1.86,0,0,1,36,14.65h0a1.86,1.86,0,0,1,1.86,1.86V32.09h3.72v-14a1.86,1.86,0,0,1,1.86-1.86h0a1.86,1.86,0,0,1,1.86,1.86Z"/><rect class="cls-1" x="22.7" y="27.01" width="3.72" height="5.58" rx="1.86" ry="1.86"/><rect class="cls-1" x="22.7" y="34.5" width="3.72" height="5.58" rx="1.86" ry="1.86"/><rect class="cls-1" x="37.91" y="38.14" width="3.72" height="6.18" rx="1.86" ry="1.86"/><rect class="cls-1" x="37.91" y="30.67" width="3.72" height="6.18" rx="1.86" ry="1.86"/></svg>