<svg id="图层_1" data-name="图层 1" xmlns="http://www.w3.org/2000/svg" viewBox="0 0 64 64"><defs><style>.cls-1{fill:#040000;}</style></defs><title>3g-bottom</title><path class="cls-1" d="M42.52,7.72a1.86,1.86,0,0,0-1.86,1.86V31.48h3.72V9.58A1.86,1.86,0,0,0,42.52,7.72Z"/><path class="cls-1" d="M35.51,12.09A1.86,1.86,0,0,0,33.65,14V31.48h3.72V14A1.86,1.86,0,0,0,35.51,12.09Z"/><path class="cls-1" d="M49.54,16.76a1.86,1.86,0,0,0-1.86,1.86V31.48H51.4V18.62A1.86,1.86,0,0,0,49.54,16.76Z"/><path class="cls-1" d="M58.42,25.18a1.86,1.86,0,1,0-3.72,0v6.31h3.72Z"/><path class="cls-1" d="M21.48,9.47a1.86,1.86,0,0,0-1.86,1.86V31.48h3.72V11.33A1.86,1.86,0,0,0,21.48,9.47Z"/><path class="cls-1" d="M12.6,31.48h3.72V20.15a1.86,1.86,0,1,0-3.72,0Z"/><path class="cls-1" d="M7.44,23.32a1.86,1.86,0,0,0-1.86,1.86v6.31H9.3V25.18A1.86,1.86,0,0,0,7.44,23.32Z"/><path class="cls-1" d="M26.63,31.48h3.72v-10a1.86,1.86,0,1,0-3.72,0Z"/><path class="cls-1" d="M28.49,18.58a1.86,1.86,0,0,0,1.86-1.86V7.17a1.86,1.86,0,1,0-3.72,0v9.55A1.86,1.86,0,0,0,28.49,18.58Z"/><path class="cls-1" d="M14.46,17.41a1.86,1.86,0,0,0,1.86-1.86V14.9a1.86,1.86,0,1,0-3.72,0v.66A1.86,1.86,0,0,0,14.46,17.41Z"/><path class="cls-1" d="M35.51,5.67a1.86,1.86,0,0,0-1.86,1.86V9.65a1.86,1.86,0,1,0,3.72,0V7.53A1.86,1.86,0,0,0,35.51,5.67Z"/><path class="cls-1" d="M34.94,43.77V32.65H29V47.23H27.1V62.61a30.91,30.91,0,0,0,9.72,0V47.23H34.94Z"/><path class="cls-1" d="M12.05,32.65H5.58c0,.5,0,1,0,1.48,0,.17,0,.34,0,.51s0,.64.08,1,.05.41.08.61.07.55.12.82.08.44.12.66.1.49.15.73.11.47.17.7.12.44.18.66.14.49.22.73l.19.57c.09.26.18.52.28.78l.18.46c.11.29.23.57.35.85l.13.28a26.13,26.13,0,0,0,2.76,4.66c.44.59.9,1.17,1.39,1.73h0q.43.48.88.95l0,0q.44.45.9.88l0,0h0V47.23H12.05Z"/><path class="cls-1" d="M23.5,43.77V32.65h-6V47.23H15.65v11.1a30.85,30.85,0,0,0,9.72,4V47.23H23.5Z"/><path class="cls-1" d="M32,1A31,31,0,0,0,13.91,57.17V54h0q-.6-.49-1.16-1h0l-.7-.66a28.69,28.69,0,0,1-4.21-5.22l0-.06q-.39-.62-.75-1.26L7,45.72q-.35-.64-.67-1.3l0-.09Q6,43.66,5.67,43v0a28.28,28.28,0,0,1-1-2.87l0-.11c-.13-.46-.25-.92-.36-1.39l0-.19Q4,37.69,3.92,37l0-.22q-.12-.7-.2-1.4l0-.21c-.05-.48-.1-1-.13-1.46,0-.05,0-.1,0-.15,0-.51,0-1,0-1.55a28.52,28.52,0,1,1,57,0c0,.52,0,1,0,1.56,0,.05,0,.1,0,.15,0,.49-.07,1-.13,1.46l0,.21q-.08.71-.2,1.41l0,.22q-.12.7-.28,1.39l0,.19c-.11.47-.23.94-.37,1.4l0,.11a28.29,28.29,0,0,1-1,2.88v0q-.29.69-.62,1.37l0,.09q-.32.66-.68,1.31l-.05.09q-.36.65-.75,1.27l0,.06a28.68,28.68,0,0,1-3.91,4.89c-.34.34-.68.68-1,1h0q-.57.52-1.17,1v3.12A31,31,0,0,0,32,1Z"/><path class="cls-1" d="M46.39,43.77V32.65h-6V47.23H38.55V62.3a30.84,30.84,0,0,0,9.72-3.92V47.23H46.39Z"/><path class="cls-1" d="M51.84,47.23H50v3.84h0l.06-.06q.39-.39.77-.8l.07-.07q.39-.42.75-.87l.09-.11q.36-.44.7-.89l.08-.11c.23-.31.45-.62.66-.93l0-.07c.38-.57.74-1.15,1.07-1.75A26.15,26.15,0,0,0,55.51,43l.1-.24c.11-.26.21-.53.32-.8l.18-.47c.09-.24.17-.48.25-.72s.13-.39.19-.58.13-.46.2-.68.12-.44.17-.65.1-.44.15-.66.1-.48.14-.72.08-.42.11-.62.08-.53.11-.8.05-.38.07-.58.06-.61.08-.92,0-.32,0-.48c0-.47,0-.95,0-1.42H51.84Z"/></svg>