<svg id="图层_1" data-name="图层 1" xmlns="http://www.w3.org/2000/svg" viewBox="0 0 64 64"><defs><style>.cls-1{fill:#040000;}</style></defs><title>3g-bottom</title><path class="cls-1" d="M56,24.73a1.13,1.13,0,0,1-1-.65,25.55,25.55,0,0,0-46.3,0,1.13,1.13,0,1,1-2-1,27.81,27.81,0,0,1,50.39,0,1.13,1.13,0,0,1-1,1.61Z"/><path class="cls-1" d="M54.73,25.91a24.54,24.54,0,0,0-45.66,0,9,9,0,0,0,0,18,24.54,24.54,0,0,0,45.66,0,9,9,0,0,0,0-18ZM31.79,57.29a22.4,22.4,0,1,1,22.4-22.4A22.4,22.4,0,0,1,31.79,57.29Z"/><rect class="cls-1" x="29.66" y="22.68" width="4.27" height="24.42" rx="2.13" ry="2.13"/><rect class="cls-1" x="15.2" y="27.41" width="4.27" height="14.19" rx="2.13" ry="2.13"/><rect class="cls-1" x="36.89" y="28.92" width="4.27" height="14.19" rx="2.13" ry="2.13"/><rect class="cls-1" x="22.43" y="31.16" width="4.27" height="8.96" rx="2.13" ry="2.13"/><rect class="cls-1" x="44.12" y="30.4" width="4.27" height="8.96" rx="2.13" ry="2.13"/></svg>